<?xml version="1.0" standalone="no"?>
<!DOCTYPE svg PUBLIC "-//W3C//DTD SVG 20010904//EN"
 "http://www.w3.org/TR/2001/REC-SVG-20010904/DTD/svg10.dtd">
<svg version="1.0" xmlns="http://www.w3.org/2000/svg"
 width="419.000000pt" height="387.000000pt" viewBox="0 0 419.000000 387.000000"
 preserveAspectRatio="xMidYMid meet">
<g transform="translate(0.000000,387.000000) scale(0.100000,-0.100000)"
fill="#000000" stroke="none">
<path d="M390 2025 l0 -1475 90 0 90 0 0 -100 0 -100 1530 0 1530 0 0 1475 0
1475 -90 0 -90 0 0 100 0 100 -1530 0 -1530 0 0 -1475z m3030 1365 l0 -90
-1425 0 -1425 0 0 -1365 0 -1365 -75 0 -75 0 0 1455 0 1455 1500 0 1500 0 0
-90z m180 -1565 l0 -1455 -1500 0 -1500 0 0 90 0 90 1425 0 1425 0 0 1365 0
1365 75 0 75 0 0 -1455z m-1705 774 l50 -14 3 -62 c3 -71 4 -71 -72 -48 -84
26 -209 37 -294 26 -116 -15 -187 -45 -248 -105 -68 -69 -94 -138 -101 -271
-15 -282 102 -445 342 -475 71 -9 99 -8 193 6 l32 5 0 179 0 180 75 0 75 0 0
-224 0 -223 -57 -18 c-89 -26 -319 -32 -419 -10 -266 58 -394 233 -394 541 0
131 11 195 50 281 52 115 154 193 304 234 60 16 96 18 241 15 100 -2 191 -9
220 -17z m873 -4 c63 -19 119 -66 143 -120 22 -46 25 -148 7 -206 -22 -75
-121 -163 -233 -207 l-46 -18 167 -229 c92 -127 173 -240 182 -252 l14 -23
-98 0 -99 0 -167 238 c-165 233 -168 238 -168 290 0 39 4 52 14 52 8 0 50 11
93 25 130 41 193 110 193 209 0 60 -16 92 -59 119 -33 20 -51 22 -218 26
l-183 3 0 -481 0 -481 -75 0 -75 0 0 535 0 535 278 0 c222 0 289 -3 330 -15z"/>
</g>
</svg>
